<?xml version="1.0" encoding="UTF-8"?>
<svg version="1.1" xmlns="http://www.w3.org/2000/svg" width="45" height="45">
<path d="M0 0 C1.03253906 -0.01160156 2.06507812 -0.02320313 3.12890625 -0.03515625 C9.58330706 -0.01017147 13.27091437 0.60721231 18.25 4.875 C20.73839228 7.86107074 20.62831217 10.8880486 20.6328125 14.59375 C20.63474609 16.11548828 20.63474609 16.11548828 20.63671875 17.66796875 C20.63285156 18.72628906 20.62898438 19.78460937 20.625 20.875 C20.63080078 22.46248047 20.63080078 22.46248047 20.63671875 24.08203125 C20.63542969 25.09652344 20.63414063 26.11101563 20.6328125 27.15625 C20.63168457 28.08501953 20.63055664 29.01378906 20.62939453 29.97070312 C20.5 32.375 20.5 32.375 19.5 35.375 C17.609375 36.98046875 17.609375 36.98046875 15.25 38.5625 C14.48171875 39.09230469 13.7134375 39.62210938 12.921875 40.16796875 C10.19572455 41.52664696 8.50127149 41.52103502 5.5 41.375 C4.51 41.87 4.51 41.87 3.5 42.375 C-4.18088465 43.32163009 -9.45766912 42.64745976 -15.7578125 38.078125 C-20.33570045 33.60288028 -20.05781624 28.15983845 -20.375 22.125 C-20.4471875 21.20847656 -20.519375 20.29195312 -20.59375 19.34765625 C-20.93211659 13.10568306 -20.27222935 8.48410369 -16.5 3.375 C-12.04781962 -0.95731398 -5.83373566 -0.06554759 0 0 Z M-4.5 15.375 C-4.83 15.705 -5.16 16.035 -5.5 16.375 C-5.41036938 18.06641656 -5.25422324 19.75459602 -5.0625 21.4375 C-4.96066406 22.35660156 -4.85882813 23.27570312 -4.75390625 24.22265625 C-4.67011719 24.93292969 -4.58632812 25.64320312 -4.5 26.375 C-4.17 26.375 -3.84 26.375 -3.5 26.375 C-2.84 22.745 -2.18 19.115 -1.5 15.375 C-2.49 15.375 -3.48 15.375 -4.5 15.375 Z M3.5 16.375 C3.11090015 17.82963481 2.73911971 19.28891207 2.375 20.75 C2.16617187 21.56210937 1.95734375 22.37421875 1.7421875 23.2109375 C1.66226562 23.92507812 1.58234375 24.63921875 1.5 25.375 C2.16 26.035 2.82 26.695 3.5 27.375 C5.48362069 24.45791076 5.4876191 23.25119096 5.125 19.625 C4.91875 18.5525 4.7125 17.48 4.5 16.375 C4.17 16.375 3.84 16.375 3.5 16.375 Z " fill="#5778F1" transform="translate(20.5,2.625)"/>
<path d="M0 0 C1.04091797 -0.00322266 2.08183594 -0.00644531 3.15429688 -0.00976562 C11.58159083 0.04984867 11.58159083 0.04984867 15.4375 2.3125 C12.19998322 3.39167226 9.85998229 3.42675601 6.45703125 3.41015625 C5.29365234 3.40693359 4.13027344 3.40371094 2.93164062 3.40039062 C1.71669922 3.39201172 0.50175781 3.38363281 -0.75 3.375 C-1.97654297 3.37048828 -3.20308594 3.36597656 -4.46679688 3.36132812 C-7.49874668 3.34953065 -10.53059906 3.33306921 -13.5625 3.3125 C-13.38074219 4.09109375 -13.19898438 4.8696875 -13.01171875 5.671875 C-12.49211454 8.7262441 -12.84872827 9.78694166 -14.5625 12.3125 C-15.5525 12.8075 -15.5525 12.8075 -16.5625 13.3125 C-16.8925 20.2425 -17.2225 27.1725 -17.5625 34.3125 C-20.86894511 31.00605489 -20.20477691 26.6949787 -20.4375 22.1875 C-20.5096875 21.26195313 -20.581875 20.33640625 -20.65625 19.3828125 C-20.99309268 13.10690147 -20.36291903 8.44750121 -16.5625 3.3125 C-12.10239989 -1.0444764 -5.84662328 -0.0908425 0 0 Z " fill="#707CDE" transform="translate(20.5625,2.6875)"/>
<path d="M0 0 C0.66 0.33 1.32 0.66 2 1 C3.00630863 4.01892589 3.12898 6.06296176 3.1328125 9.21875 C3.13474609 10.74048828 3.13474609 10.74048828 3.13671875 12.29296875 C3.13285156 13.35128906 3.12898438 14.40960938 3.125 15.5 C3.12886719 16.55832031 3.13273437 17.61664062 3.13671875 18.70703125 C3.13542969 19.72152344 3.13414063 20.73601563 3.1328125 21.78125 C3.13168457 22.71001953 3.13055664 23.63878906 3.12939453 24.59570312 C3 27 3 27 2 30 C-0.06640625 31.60546875 -0.06640625 31.60546875 -2.5625 33.1875 C-3.38878906 33.71730469 -4.21507812 34.24710938 -5.06640625 34.79296875 C-5.70449219 35.19128906 -6.34257812 35.58960938 -7 36 C-7.33 35.34 -7.66 34.68 -8 34 C-10.02463255 33.34786708 -10.02463255 33.34786708 -12 33 C-11.05125 32.71125 -10.1025 32.4225 -9.125 32.125 C-5.94788422 31.23174891 -5.94788422 31.23174891 -4 29 C-3.01 28.34 -2.02 27.68 -1 27 C-0.67 26.01 -0.34 25.02 0 24 C0.66 24 1.32 24 2 24 C1.8583467 21.12473931 1.71181468 18.24986464 1.5625 15.375 C1.52318359 14.56675781 1.48386719 13.75851563 1.44335938 12.92578125 C1.21203918 8.54849135 0.83079083 4.31452719 0 0 Z " fill="#6488E0" transform="translate(38,8)"/>
<path d="M0 0 C0.99 0.33 1.98 0.66 3 1 C2.01 1.33 1.02 1.66 0 2 C0 6.29 0 10.58 0 15 C1.051875 14.814375 2.10375 14.62875 3.1875 14.4375 C6.57119882 14.04920669 8.76425888 14.11752515 12 15 C11.979375 13.72125 11.95875 12.4425 11.9375 11.125 C11.875 7.25 11.875 7.25 13 5 C13.66 5 14.32 5 15 5 C15.36392157 12.27843137 15.36392157 12.27843137 13.8671875 15.24609375 C12 17 12 17 9.15234375 17.42578125 C8.09144531 17.38839844 7.03054687 17.35101563 5.9375 17.3125 C4.87402344 17.28800781 3.81054688 17.26351562 2.71484375 17.23828125 C-0 17 -0 17 -2 16 C-3.12525428 12.30088822 -2.94322351 9.49365275 -2.125 5.75 C-1.94195312 4.87859375 -1.75890625 4.0071875 -1.5703125 3.109375 C-1 1 -1 1 0 0 Z " fill="#5A72DE" transform="translate(15,15)"/>
<path d="M0 0 C0.66 0.66 1.32 1.32 2 2 C1.64477539 3.81347656 1.64477539 3.81347656 1 6 C0.85701869 7.6586512 0.75458775 9.3210869 0.68359375 10.984375 C0.64169922 11.91894531 0.59980469 12.85351562 0.55664062 13.81640625 C0.51732422 14.78449219 0.47800781 15.75257812 0.4375 16.75 C0.39431641 17.73355469 0.35113281 18.71710937 0.30664062 19.73046875 C0.20077948 22.15351275 0.09869829 24.5766554 0 27 C-2.38215184 24.61784816 -2.25584331 24.09991069 -2.265625 20.859375 C-2.26820312 20.03566406 -2.27078125 19.21195313 -2.2734375 18.36328125 C-2.26570312 17.50089844 -2.25796875 16.63851563 -2.25 15.75 C-2.25773438 14.90308594 -2.26546875 14.05617188 -2.2734375 13.18359375 C-2.25853296 8.3917839 -1.85263126 4.49924735 0 0 Z " fill="#6675DB" transform="translate(3,10)"/>
<path d="M0 0 C0.66 0 1.32 0 2 0 C3.27253436 3.64793184 4.32829194 7.1936543 5 11 C2.36 11 -0.28 11 -3 11 C-3.37113402 5.43298969 -3.37113402 5.43298969 -1.5 3.25 C-1.005 2.8375 -0.51 2.425 0 2 C0 1.34 0 0.68 0 0 Z " fill="#C1D0F4" transform="translate(18,19)"/>
<path d="M0 0 C0.66 0 1.32 0 2 0 C2.35190616 7.03812317 2.35190616 7.03812317 1.0625 10.5625 C-2.00875713 12.70307315 -4.55279091 11.93097434 -8.13671875 11.359375 C-8.75160156 11.24078125 -9.36648437 11.1221875 -10 11 C-9.67 10.34 -9.34 9.68 -9 9 C-6.36 9.33 -3.72 9.66 -1 10 C-1.020625 8.72125 -1.04125 7.4425 -1.0625 6.125 C-1.125 2.25 -1.125 2.25 0 0 Z " fill="#5177E6" transform="translate(28,20)"/>
<path d="M0 0 C2.97 0.33 5.94 0.66 9 1 C9 1.33 9 1.66 9 2 C12.3 2.33 15.6 2.66 19 3 C16.32848149 5.67151851 14.90817468 5.29873672 11.1875 5.3125 C9.63095703 5.33763672 9.63095703 5.33763672 8.04296875 5.36328125 C4.62793013 4.95558088 2.72542101 4.07051392 0 2 C0 1.34 0 0.68 0 0 Z " fill="#ACBFF1" transform="translate(7,40)"/>
<path d="M0 0 C0 0.66 0 1.32 0 2 C-2.97 2.66 -5.94 3.32 -9 4 C-9 3.01 -9 2.02 -9 1 C-6.04335481 -0.4783226 -3.25770263 -0.06032783 0 0 Z " fill="#5D6CF1" transform="translate(16,5)"/>
<path d="M0 0 C1.98 0.495 1.98 0.495 4 1 C4 1.99 4 2.98 4 4 C2.35 4.33 0.7 4.66 -1 5 C-0.67 3.35 -0.34 1.7 0 0 Z " fill="#407FF2" transform="translate(34,33)"/>
<path d="M0 0 C0 2.97 0 5.94 0 9 C-1.77706209 6.33440687 -2.87548273 3.9719385 -4 1 C-1 0 -1 0 0 0 Z " fill="#7E92D9" transform="translate(23,17)"/>
<path d="" fill="#7FFFFF" transform="translate(0,0)"/>
<path d="" fill="#FFFFFF" transform="translate(0,0)"/>
<path d="" fill="#FFFFFF" transform="translate(0,0)"/>
<path d="" fill="#FFFFFF" transform="translate(0,0)"/>
<path d="" fill="#00FFFF" transform="translate(0,0)"/>
<path d="" fill="#FFFFFF" transform="translate(0,0)"/>
<path d="" fill="#00FFFF" transform="translate(0,0)"/>
<path d="" fill="#00FFFF" transform="translate(0,0)"/>
<path d="" fill="#FFFFFF" transform="translate(0,0)"/>
<path d="" fill="#FFFFFF" transform="translate(0,0)"/>
<path d="" fill="#FFFFFF" transform="translate(0,0)"/>
<path d="" fill="#FFFFFF" transform="translate(0,0)"/>
<path d="" fill="#00FFFF" transform="translate(0,0)"/>
<path d="" fill="#00FFFF" transform="translate(0,0)"/>
<path d="" fill="#FFFFFF" transform="translate(0,0)"/>
</svg>
